<svg width="32" height="33" viewBox="0 0 32 33" fill="none" xmlns="http://www.w3.org/2000/svg">
<path d="M15.9999 11.3305C15.9999 8.49787 18.3124 6.14165 21.0624 6.18028C22.0255 6.19173 22.9649 6.48944 23.7676 7.03763C24.5703 7.58581 25.2023 8.36114 25.5874 9.27041H29.9999L25.9624 13.4292C25.7019 17.6068 23.9065 21.5253 20.9414 24.3882C17.9763 27.251 14.064 28.8433 9.99994 28.8412C5.99994 28.8412 4.99994 27.2962 4.99994 27.2962C4.99994 27.2962 8.99994 25.7511 10.9999 22.661C10.9999 22.661 2.99994 18.5408 4.99994 7.21032C4.99994 7.21032 9.99994 12.3605 15.9999 13.3906V11.3305Z" stroke="black" stroke-width="2" stroke-linecap="round" stroke-linejoin="round"/>
</svg>
